<?xml version="1.0" encoding="UTF-8" standalone="no"?>
<!-- Created with Inkscape (http://www.inkscape.org/) -->

<svg
   xmlns:dc="http://purl.org/dc/elements/1.1/"
   xmlns:cc="http://creativecommons.org/ns#"
   xmlns:rdf="http://www.w3.org/1999/02/22-rdf-syntax-ns#"
   xmlns:svg="http://www.w3.org/2000/svg"
   xmlns="http://www.w3.org/2000/svg"
   xmlns:sodipodi="http://sodipodi.sourceforge.net/DTD/sodipodi-0.dtd"
   xmlns:inkscape="http://www.inkscape.org/namespaces/inkscape"
   width="70mm"
   height="70mm"
   viewBox="0 0 70.000003 70.000001"
   version="1.1"
   id="svg8"
   inkscape:version="0.92.3 (2405546, 2018-03-11)"
   sodipodi:docname="icon.svg"
   inkscape:export-filename="C:\Users\u0031620\Desktop\gingami\Gingami\assets\logo_16.png"
   inkscape:export-xdpi="5.9127059"
   inkscape:export-ydpi="5.9127059">
  <defs
     id="defs2" />
  <sodipodi:namedview
     id="base"
     pagecolor="#ffffff"
     bordercolor="#666666"
     borderopacity="1.0"
     inkscape:pageopacity="0.0"
     inkscape:pageshadow="2"
     inkscape:zoom="2"
     inkscape:cx="209.88883"
     inkscape:cy="90.051707"
     inkscape:document-units="mm"
     inkscape:current-layer="layer1"
     showgrid="false"
     fit-margin-top="0"
     fit-margin-left="0"
     fit-margin-right="0"
     fit-margin-bottom="0"
     inkscape:window-width="1920"
     inkscape:window-height="1137"
     inkscape:window-x="-8"
     inkscape:window-y="-8"
     inkscape:window-maximized="1" />
  <metadata
     id="metadata5">
    <rdf:RDF>
      <cc:Work
         rdf:about="">
        <dc:format>image/svg+xml</dc:format>
        <dc:type
           rdf:resource="http://purl.org/dc/dcmitype/StillImage" />
        <dc:title></dc:title>
      </cc:Work>
    </rdf:RDF>
  </metadata>
  <g
     inkscape:label="Layer 1"
     inkscape:groupmode="layer"
     id="layer1"
     transform="translate(-54.499998,-129.00005)">
    <g
       id="g4536"
       transform="translate(0.63333221,-0.63333109)">
      <circle
         r="33.866665"
         cy="164.63338"
         cx="88.866669"
         id="path4532"
         style="fill:#b7c4c8;fill-opacity:1;stroke:#374548;stroke-width:1" />
      <path
         inkscape:connector-curvature="0"
         id="path815"
         d="m 88.866661,130.76721 a 33.866752,33.866393 0 0 0 -0.374524,0.0128 l 34.222763,34.2224 a 33.866752,33.866393 0 0 0 0.0184,-0.36928 33.866752,33.866393 0 0 0 -33.866794,-33.86641 z m -18.687353,5.64755 a 33.866752,33.866393 0 0 0 -9.531117,9.5324 l 46.906179,46.90567 a 33.866752,33.866393 0 0 0 9.53111,-9.5324 z m -15.16088,27.84958 a 33.866752,33.866393 0 0 0 -0.01843,0.36928 33.866752,33.866393 0 0 0 33.866786,33.86643 33.866752,33.866393 0 0 0 0.374527,-0.0128 z"
         style="fill:#6f8a91;fill-opacity:1;stroke:#374548;stroke-width:1" />
    </g>
  </g>
</svg>
